<svg width="16" height="16" viewBox="0 0 16 16" fill="none" xmlns="http://www.w3.org/2000/svg">
<path fill-rule="evenodd" clip-rule="evenodd" d="M2.30038 3.35361C2.01047 3.64352 1.8335 4.16739 1.8335 5.19339V10.8067C1.8335 11.4362 1.9911 12.0098 2.33089 12.4174C2.6573 12.809 3.20656 13.1134 4.14016 13.1134H8.3535C9.37568 13.1134 9.90012 12.9366 10.1911 12.6462C10.4819 12.3559 10.6602 11.8317 10.6602 10.8067V10.1026L10.6602 10.1001V5.89339L10.6602 5.8908V5.19339C10.6602 4.16739 10.4832 3.64352 10.1933 3.35361C9.90336 3.06369 9.3795 2.88672 8.3535 2.88672H4.14016C3.11416 2.88672 2.5903 3.06369 2.30038 3.35361ZM10.8975 13.3539C11.4387 12.8138 11.6299 12.0254 11.6568 11.0591L12.7251 11.8085L12.7258 11.809C13.2522 12.1804 13.8734 12.3503 14.4106 12.0713C14.9478 11.7922 15.1668 11.1859 15.1668 10.5401V5.46006C15.1668 4.81375 14.9476 4.20842 14.4116 3.92852C13.8755 3.64856 13.2544 3.81519 12.7272 4.18349L11.6566 4.93441C11.6294 3.97196 11.4395 3.18565 10.9004 2.6465C10.3136 2.05975 9.43416 1.88672 8.3535 1.88672H4.14016C3.05949 1.88672 2.18003 2.05975 1.59328 2.6465C1.00653 3.23325 0.833496 4.11272 0.833496 5.19339V10.8067C0.833496 11.5839 1.02589 12.4137 1.56277 13.0577C2.11302 13.7178 2.9671 14.1134 4.14016 14.1134H8.3535C9.43132 14.1134 10.3102 13.9402 10.8975 13.3539ZM13.3006 10.9907L11.6602 9.84004V6.15341L13.2998 5.00329C13.679 4.73854 13.8848 4.78157 13.9487 4.81493C14.0127 4.84836 14.1668 4.99303 14.1668 5.46006V10.5401C14.1668 11.0075 14.0125 11.1512 13.9497 11.1838C13.8871 11.2163 13.6819 11.2599 13.3018 10.9916L13.3006 10.9907ZM7.16683 6.33337C7.16683 6.05723 7.39069 5.83337 7.66683 5.83337C7.94297 5.83337 8.16683 6.05723 8.16683 6.33337C8.16683 6.60952 7.94297 6.83337 7.66683 6.83337C7.39069 6.83337 7.16683 6.60952 7.16683 6.33337ZM7.66683 4.83337C6.8384 4.83337 6.16683 5.50495 6.16683 6.33337C6.16683 7.1618 6.8384 7.83337 7.66683 7.83337C8.49526 7.83337 9.16683 7.1618 9.16683 6.33337C9.16683 5.50495 8.49526 4.83337 7.66683 4.83337Z" fill="#FD4C5C"/>
</svg>
